<svg xmlns="http://www.w3.org/2000/svg" width="960" height="600" viewBox="0 0 960 600" fill="none">
  <defs>
    <radialGradient id="bg"><stop stop-color="#1a343c"/><stop offset="1" stop-color="#0b1319"/></radialGradient>
    <radialGradient id="piece" cx=".3" cy=".25"><stop stop-color="#c2f8e5"/><stop offset="1" stop-color="#6cc6ad"/></radialGradient>
    <marker id="arrow" markerWidth="8" markerHeight="8" refX="5" refY="3" orient="auto"><path d="m0 0 6 3-6 3" stroke="#eac38b" stroke-width="1.3" stroke-linejoin="round"/></marker>
  </defs>
  <path fill="url(#bg)" d="M0 0h960v600H0z"/>
  <g stroke="#426370" stroke-width="1" opacity=".42">
    <path d="m240 346 300 130 192-112-300-130z" fill="#314e5018"/>
    <path d="m272 327 300 130m-268-149 300 130m-268-149 300 130m-268-149 300 130m-268-149 300 130M290 368l192-112m-142 134 192-112m-142 134 192-112m-142 134 192-112m-142 134 192-112"/>
  </g>
  <g stroke="#49656a" stroke-width="1" opacity=".48">
    <path d="M322 390V185m50 227V207m50 226V228m50 227V250m50 226V272M272 368V164"/>
    <path d="m272 368 250 108m-250-154 250 108m-250-154 250 108m-250-154 250 108m-250-154 250 108"/>
  </g>
  <path d="m272 276 250 108" stroke="#eac38b" stroke-width="2" opacity=".65"/>
  <g fill="url(#piece)" stroke="#adf2d7" stroke-width="1.2">
    <circle cx="272" cy="368" r="13"/><circle cx="322" cy="390" r="13"/><circle cx="372" cy="412" r="13"/><circle cx="422" cy="433" r="13"/><circle cx="472" cy="455" r="13"/>
    <circle cx="322" cy="344" r="13"/><circle cx="372" cy="366" r="13"/><circle cx="422" cy="387" r="13"/>
    <circle cx="322" cy="298" r="13"/>
  </g>
  <g stroke="#89b9ff" stroke-width="2.3">
    <circle cx="354" cy="371" r="12"/><circle cx="404" cy="393" r="12"/><circle cx="454" cy="415" r="12"/><circle cx="404" cy="347" r="12"/>
  </g>
  <g stroke="#c4a2ff" stroke-width="2" stroke-dasharray="4 4">
    <circle cx="290" cy="409" r="12"/><circle cx="340" cy="431" r="12"/><circle cx="390" cy="452" r="12"/>
  </g>
  <circle cx="322" cy="252" r="17" stroke="#eac38b" stroke-width="2.5"/>
  <circle cx="322" cy="252" r="26" stroke="#eac38b" opacity=".17"/>
  <path d="M310 383c-62-22-60-122-15-130" stroke="#eac38b" stroke-width="2" stroke-dasharray="5 6" marker-end="url(#arrow)"/>
  <g font-family="'Segoe UI',system-ui,sans-serif">
    <text x="72" y="82" fill="#91aaa9" font-size="13" letter-spacing="4">CONWAY’S SOLDIERS</text>
    <text x="67" y="160" fill="#e1eae9" font-size="70" font-weight="300" letter-spacing="6">3D</text>
    <text x="673" y="138" fill="#eac38b" font-size="68" font-weight="300">7</text>
    <text x="725" y="136" fill="#879b9f" font-size="12" letter-spacing="2">LAYERS</text>
    <text x="666" y="167" fill="#879b9f" font-size="12" letter-spacing="3">SIX DIRECTIONS</text>
    <text x="72" y="544" fill="#83ddc4" font-size="12" letter-spacing="3">X / Y / Z</text>
    <text x="688" y="544" fill="#879b9f" font-size="11" letter-spacing="2">EXPLORE THE LATTICE</text>
  </g>
</svg>
